<svg xmlns="http://www.w3.org/2000/svg" viewBox="0 0 1600 700" preserveAspectRatio="xMidYMid slice">
  <defs>
    <linearGradient id="wall" x1="0" y1="0" x2="0" y2="1">
      <stop offset="0" stop-color="#e8e8e8"></stop>
      <stop offset="1" stop-color="#bdbdbd"></stop>
    </linearGradient>
    <linearGradient id="counter" x1="0" y1="0" x2="0" y2="1">
      <stop offset="0" stop-color="#cfcfcf"></stop>
      <stop offset="1" stop-color="#a8a8a8"></stop>
    </linearGradient>
    <linearGradient id="cabinet" x1="0" y1="0" x2="0" y2="1">
      <stop offset="0" stop-color="#dcdcdc"></stop>
      <stop offset="1" stop-color="#c2c2c2"></stop>
    </linearGradient>
    <radialGradient id="vignette" cx="50%" cy="50%" r="70%">
      <stop offset="60%" stop-color="#000" stop-opacity="0"></stop>
      <stop offset="100%" stop-color="#000" stop-opacity="0.35"></stop>
    </radialGradient>
    <filter id="grain" x="0" y="0">
      <feTurbulence type="fractalNoise" baseFrequency="0.95" numOctaves="2" seed="7"></feTurbulence>
      <feColorMatrix values="0 0 0 0 0.5  0 0 0 0 0.5  0 0 0 0 0.5  0 0 0 0.18 0"></feColorMatrix>
    </filter>
  </defs>
  <rect width="1600" height="700" fill="url(#wall)"></rect>
  <rect x="0" y="40" width="640" height="260" fill="url(#cabinet)"></rect>
  <rect x="640" y="40" width="220" height="260" fill="#9f9f9f"></rect>
  <line x1="640" y1="40" x2="640" y2="300" stroke="#7a7a7a" stroke-width="2"></line>
  <line x1="860" y1="40" x2="860" y2="300" stroke="#7a7a7a" stroke-width="2"></line>
  <rect x="40" y="80" width="220" height="140" fill="#2a2a2a"></rect>
  <rect x="60" y="100" width="140" height="100" fill="#3d3d3d"></rect>
  <rect x="210" y="100" width="40" height="100" fill="#1e1e1e"></rect>
  <line x1="320" y1="160" x2="380" y2="160" stroke="#7a7a7a" stroke-width="3"></line>
  <line x1="460" y1="160" x2="520" y2="160" stroke="#7a7a7a" stroke-width="3"></line>
  <rect x="1080" y="40" width="520" height="660" fill="#1f1f1f"></rect>
  <rect x="1100" y="60" width="200" height="300" fill="#0f0f0f"></rect>
  <rect x="1320" y="60" width="180" height="300" fill="#161616"></rect>
  <circle cx="1530" cy="180" r="50" fill="#2a2a2a"></circle>
  <circle cx="1530" cy="180" r="34" fill="#e6e6e6"></circle>
  <circle cx="1530" cy="180" r="6" fill="#1a1a1a"></circle>
  <line x1="1530" y1="180" x2="1556" y2="155" stroke="#1a1a1a" stroke-width="3"></line>
  <rect x="1100" y="380" width="380" height="280" fill="#0c0c0c"></rect>
  <rect x="1120" y="400" width="340" height="220" fill="#1a1a1a"></rect>
  <rect x="0" y="380" width="1080" height="40" fill="#bcbcbc"></rect>
  <rect x="0" y="420" width="1080" height="280" fill="url(#counter)"></rect>
  <rect x="220" y="320" width="14" height="60" fill="#8a8a8a"></rect>
  <rect x="200" y="320" width="60" height="10" fill="#8a8a8a"></rect>
  <rect x="240" y="280" width="10" height="40" fill="#9a9a9a"></rect>
  <rect x="280" y="430" width="60" height="80" fill="#9b9b9b"></rect>
  <rect x="350" y="420" width="50" height="90" fill="#b0b0b0"></rect>
  <rect x="410" y="440" width="40" height="70" fill="#8c8c8c"></rect>
  <rect x="450" y="430" width="36" height="80" fill="#a3a3a3"></rect>
  <rect x="900" y="320" width="180" height="220" fill="#7d7d7d"></rect>
  <rect x="908" y="328" width="164" height="204" fill="#9c9c9c"></rect>
  <path d="M 700 700 L 700 460 C 700 400 760 360 820 360 C 880 360 940 400 940 460 L 940 700 Z" fill="#1a1a1a"></path>
  <rect x="800" y="320" width="40" height="50" fill="#9c918a"></rect>
  <ellipse cx="820" cy="280" rx="58" ry="68" fill="#aa9f96"></ellipse>
  <path d="M 762 250 C 762 210 880 200 878 252 L 878 268 C 870 240 770 240 762 268 Z" fill="#1f1c19"></path>
  <circle cx="800" cy="288" r="11" fill="none" stroke="#1f1f1f" stroke-width="3"></circle>
  <circle cx="840" cy="288" r="11" fill="none" stroke="#1f1f1f" stroke-width="3"></circle>
  <line x1="811" y1="288" x2="829" y2="288" stroke="#1f1f1f" stroke-width="3"></line>
  <ellipse cx="820" cy="312" rx="10" ry="3" fill="#8a7f76"></ellipse>
  <line x1="820" y1="380" x2="820" y2="700" stroke="#2c2c2c" stroke-width="2"></line>
  <rect width="1600" height="700" fill="url(#vignette)"></rect>
  <rect width="1600" height="700" fill="url(#grain)" opacity="0.85"></rect>
</svg>